# xmcd CD database file
#
# Track frame offsets:
#	150
#	54791
#	97084
#	170052
#	216978
#	228713
#	244188
#	274126
#	308937
#
# Disc length: 4304 seconds
#
# Revision: 0
# Processed by: cddbd v1.5.1PL2 Copyright (c) Steve Scherf et al.
# Submitted via: CDex 1.51
#
DISCID=8410ce09
DTITLE=ROBERTO AYMES BAND - Downtown Scales
DYEAR=2000
DGENRE=Jazz
TTITLE0=Heartbeat Sense [I Movement]
TTITLE1=Life Routine [I Movement] 
TTITLE2=Big City Sadness [II Movement]
TTITLE3=Flat East - Sharp West [II Movement]
TTITLE4=Delightful Fiesta (to Chick) [III Movement]
TTITLE5=Mess Syrup [III Movement]
TTITLE6=Fascinating Legacy [III Movement]
TTITLE7=Cool Nighthawk [IV Movement]
TTITLE8=Blues Dawn [IV Movement]
EXTD=YEAR: 2000
EXTT0=
EXTT1=
EXTT2=
EXTT3=
EXTT4=
EXTT5=
EXTT6=
EXTT7=
EXTT8=
PLAYORDER=
